<svg xmlns="http://www.w3.org/2000/svg" id="plus" width="170" height="170" viewBox="0 0 170 170">
  <path d="M150,5H20c-8.271,0-15,6.729-15,15v130c0,8.271,6.729,15,15,15h130c8.271,0,15-6.729,15-15V20c0-8.271-6.729-15-15-15ZM155,150c0,2.757-2.243,5-5,5H20c-2.757,0-5-2.243-5-5V20c0-2.757,2.243-5,5-5h130c2.757,0,5,2.243,5,5v130Z"></path>
  <path d="M114.777,80h-24.777v-24.777c0-2.761-2.238-5-5-5s-5,2.239-5,5v24.777h-24.777c-2.762,0-5,2.239-5,5s2.238,5,5,5h24.777v24.777c0,2.761,2.238,5,5,5s5-2.239,5-5v-24.777h24.777c2.762,0,5-2.239,5-5s-2.238-5-5-5Z"></path>
</svg>
