<svg xmlns="http://www.w3.org/2000/svg" width="24" height="24" fill="none" viewBox="0 0 24 24" id="reels">
  <path fill="#000" fill-rule="evenodd" d="M1.5 4C1.5 2.61929 2.61929 1.5 4 1.5H20C21.3807 1.5 22.5 2.61929 22.5 4V20C22.5 21.3807 21.3807 22.5 20 22.5H18C17.7239 22.5 17.5 22.2761 17.5 22C17.5 21.7239 17.7239 21.5 18 21.5H20C20.8284 21.5 21.5 20.8284 21.5 20V4C21.5 3.17157 20.8284 2.5 20 2.5H4C3.17157 2.5 2.5 3.17157 2.5 4V20C2.5 20.8284 3.17157 21.5 4 21.5H15C15.2761 21.5 15.5 21.7239 15.5 22C15.5 22.2761 15.2761 22.5 15 22.5H4C2.61929 22.5 1.5 21.3807 1.5 20V4Z" clip-rule="evenodd"></path>
  <path fill="#000" fill-rule="evenodd" d="M9.80902 11.5C9.63835 11.5 9.5 11.6384 9.5 11.809V16.191C9.5 16.3616 9.63835 16.5 9.80902 16.5 9.85699 16.5 9.9043 16.4888 9.94721 16.4674L14.3292 14.2764C14.4339 14.224 14.5 14.117 14.5 14 14.5 13.883 14.4339 13.776 14.3292 13.7236L9.94721 11.5326C9.9043 11.5112 9.85699 11.5 9.80902 11.5ZM8.5 11.809C8.5 11.0861 9.08607 10.5 9.80902 10.5 10.0122 10.5 10.2127 10.5473 10.3944 10.6382L14.7764 12.8292C15.2199 13.0509 15.5 13.5042 15.5 14 15.5 14.4958 15.2199 14.9491 14.7764 15.1708L10.3944 17.3618C10.2127 17.4527 10.0122 17.5 9.80902 17.5 9.08607 17.5 8.5 16.9139 8.5 16.191V11.809ZM1.5 8C1.5 7.72386 1.72386 7.5 2 7.5H22C22.2761 7.5 22.5 7.72386 22.5 8 22.5 8.27614 22.2761 8.5 22 8.5H2C1.72386 8.5 1.5 8.27614 1.5 8Z" clip-rule="evenodd"></path>
  <path fill="#000" fill-rule="evenodd" d="M16.3173 1.52567C16.0554 1.613 15.9138 1.89616 16.0011 2.15813L18.0011 8.15813C18.0884 8.4201 18.3716 8.56168 18.6336 8.47436 18.8955 8.38703 19.0371 8.10387 18.9498 7.8419L16.9498 1.8419C16.8625 1.57993 16.5793 1.43835 16.3173 1.52567ZM8.81734 1.52567C8.55536 1.613 8.41378 1.89616 8.50111 2.15813L10.5011 8.15813C10.5884 8.4201 10.8716 8.56168 11.1336 8.47436 11.3955 8.38703 11.5371 8.10387 11.4498 7.8419L9.44979 1.8419C9.36247 1.57993 9.07931 1.43835 8.81734 1.52567ZM5.34196 1.59952C5.07999 1.68685 4.93841 1.97001 5.02573 2.23198L7.00111 8.1581C7.08843 8.42008 7.37159 8.56166 7.63356 8.47433 7.89554 8.38701 8.03712 8.10385 7.94979 7.84188L5.97442 1.91575C5.88709 1.65378 5.60393 1.5122 5.34196 1.59952ZM12.8173 1.52567C12.5554 1.613 12.4138 1.89616 12.5011 2.15813L14.5011 8.15813C14.5884 8.4201 14.8716 8.56168 15.1336 8.47436 15.3955 8.38703 15.5371 8.10387 15.4498 7.8419L13.4498 1.8419C13.3625 1.57993 13.0793 1.43835 12.8173 1.52567Z" clip-rule="evenodd"></path>
</svg>
